<?xml version="1.0" encoding="utf-8"?>
<!-- Generator: Adobe Illustrator 16.0.0, SVG Export Plug-In . SVG Version: 6.00 Build 0)  -->
<!DOCTYPE svg PUBLIC "-//W3C//DTD SVG 1.0//EN" "http://www.w3.org/TR/2001/REC-SVG-20010904/DTD/svg10.dtd">
<svg version="1.0" id="Ebene_1" xmlns="http://www.w3.org/2000/svg" xmlns:xlink="http://www.w3.org/1999/xlink" x="0px" y="0px"
	 width="56.489px" height="27.015px" viewBox="0 0 56.489 27.015" enable-background="new 0 0 56.489 27.015" xml:space="preserve">
<g>
	<path fill="#DADADA" d="M6.312,20.13c1.07,0,2.014-0.293,2.834-0.878s1.229-1.464,1.229-2.635h0.539l0.023,0.07
		c0.031,1.241-0.423,2.23-1.364,2.968s-2.028,1.107-3.261,1.107c-1.616,0-2.882-0.582-3.8-1.745
		c-0.917-1.163-1.376-2.693-1.376-4.59v-0.492c0-1.889,0.457-3.415,1.37-4.579C3.419,8.193,4.68,7.612,6.288,7.612
		c1.312,0,2.422,0.385,3.332,1.153c0.91,0.769,1.349,1.852,1.317,3.25l-0.023,0.07h-0.539c0-1.241-0.398-2.191-1.194-2.852
		C8.384,8.574,7.42,8.244,6.288,8.244c-1.483,0-2.607,0.531-3.372,1.592c-0.766,1.062-1.148,2.428-1.148,4.099v0.492
		c0,1.687,0.382,3.059,1.148,4.116C3.681,19.601,4.813,20.13,6.312,20.13z"/>
	<path fill="#DADADA" d="M14.965,20.516h-0.632V2.249h0.632V20.516z"/>
	<path fill="#DADADA" d="M18.127,13.935c0-1.858,0.514-3.376,1.54-4.555s2.359-1.768,3.999-1.768c1.647,0,2.984,0.589,4.011,1.768
		c1.026,1.179,1.54,2.697,1.54,4.555v0.492c0,1.866-0.513,3.388-1.54,4.567c-1.027,1.179-2.356,1.769-3.987,1.769
		c-1.647,0-2.986-0.589-4.017-1.769c-1.03-1.179-1.546-2.701-1.546-4.567V13.935z M18.759,14.427c0,1.593,0.445,2.941,1.335,4.046
		c0.89,1.105,2.088,1.657,3.595,1.657c1.483,0,2.67-0.554,3.56-1.663c0.89-1.108,1.335-2.455,1.335-4.04v-0.492
		c0-1.553-0.449-2.89-1.347-4.011c-0.897-1.12-2.088-1.68-3.571-1.68c-1.491,0-2.682,0.56-3.572,1.68
		c-0.89,1.121-1.335,2.458-1.335,4.011V14.427z"/>
	<path fill="#DADADA" d="M40.739,18.291c-0.398,0.781-0.964,1.388-1.698,1.821c-0.734,0.433-1.624,0.65-2.669,0.65
		c-1.304,0-2.325-0.463-3.062-1.388c-0.738-0.925-1.106-2.36-1.106-4.304V7.846h0.632v7.248c0,1.718,0.316,2.986,0.949,3.806
		c0.632,0.82,1.487,1.23,2.564,1.23c1.288,0,2.285-0.314,2.992-0.943s1.165-1.458,1.376-2.488V7.846h0.644v7.459h0.023
		c0,0.102-0.004,0.199-0.012,0.293c-0.008,0.093-0.012,0.203-0.012,0.328v4.59h-0.527L40.739,18.291z"/>
	<path fill="#DADADA" d="M44.791,14.169c0-2.006,0.421-3.601,1.265-4.784s2.014-1.774,3.513-1.774c0.984,0,1.836,0.221,2.559,0.662
		c0.722,0.441,1.297,1.044,1.727,1.809V2.249h0.632v9.497c0,0.016,0,0.027,0,0.035c0,0.008,0.004,0.012,0.012,0.012v5.164
		c-0.008,0.016-0.012,0.028-0.012,0.035c0,0.008,0,0.016,0,0.023v3.501h-0.609l-0.023-1.956c-0.422,0.679-1,1.216-1.733,1.61
		c-0.734,0.394-1.593,0.591-2.577,0.591c-1.491,0-2.656-0.57-3.495-1.71c-0.839-1.14-1.259-2.685-1.259-4.637V14.169z
		 M45.446,14.415c0,1.749,0.345,3.139,1.036,4.169s1.708,1.546,3.05,1.546c1.101,0,2.014-0.248,2.74-0.744s1.253-1.157,1.581-1.985
		v-5.996c-0.312-0.897-0.806-1.649-1.481-2.254s-1.614-0.908-2.816-0.908c-1.343,0-2.363,0.548-3.062,1.645
		c-0.699,1.097-1.048,2.523-1.048,4.28V14.415z"/>
</g>
</svg>
